<svg width="280" height="278" viewBox="0 0 280 278" fill="none" xmlns="http://www.w3.org/2000/svg">
<ellipse cx="140" cy="138.511" rx="140" ry="138.511" fill="white"/>
<path fill-rule="evenodd" clip-rule="evenodd" d="M157.231 169C158.592 169 159.692 170.12 159.692 171.5C159.692 172.88 158.592 174 157.231 174H122.769C121.41 174 120.308 172.88 120.308 171.5C120.308 170.12 121.41 169 122.769 169H157.231ZM172 159H122.769C121.41 159 120.308 157.88 120.308 156.5C120.308 155.12 121.41 154 122.769 154H172C173.361 154 174.462 155.12 174.462 156.5C174.462 157.88 173.361 159 172 159ZM176.923 144H122.769C121.41 144 120.308 142.88 120.308 141.5C120.308 140.12 121.41 139 122.769 139H176.923C178.284 139 179.385 140.12 179.385 141.5C179.385 142.88 178.284 144 176.923 144ZM120.308 126.5C120.308 125.12 121.41 124 122.769 124H167.077C168.438 124 169.538 125.12 169.538 126.5C169.538 127.88 168.438 129 167.077 129H122.769C121.41 129 120.308 127.88 120.308 126.5ZM120.308 111.5C120.308 110.12 121.41 109 122.769 109H172C173.361 109 174.462 110.12 174.462 111.5C174.462 112.88 173.361 114 172 114H122.769C121.41 114 120.308 112.88 120.308 111.5ZM110.462 171.5C110.462 172.88 109.359 174 108 174H103.077C101.718 174 100.615 172.88 100.615 171.5C100.615 170.12 101.718 169 103.077 169H108C109.359 169 110.462 170.12 110.462 171.5ZM110.462 156.5C110.462 157.88 109.359 159 108 159H103.077C101.718 159 100.615 157.88 100.615 156.5C100.615 155.12 101.718 154 103.077 154H108C109.359 154 110.462 155.12 110.462 156.5ZM110.462 141.5C110.462 142.88 109.359 144 108 144H103.077C101.718 144 100.615 142.88 100.615 141.5C100.615 140.12 101.718 139 103.077 139H108C109.359 139 110.462 140.12 110.462 141.5ZM110.462 126.5C110.462 127.88 109.359 129 108 129H103.077C101.718 129 100.615 127.88 100.615 126.5C100.615 125.12 101.718 124 103.077 124H108C109.359 124 110.462 125.12 110.462 126.5ZM110.462 111.5C110.462 112.88 109.359 114 108 114H103.077C101.718 114 100.615 112.88 100.615 111.5C100.615 110.12 101.718 109 103.077 109H108C109.359 109 110.462 110.12 110.462 111.5ZM110.462 76.5C110.462 75.12 111.564 74 112.923 74H117.846C119.205 74 120.308 75.12 120.308 76.5C120.308 77.88 119.205 79 117.846 79H112.923C111.564 79 110.462 77.88 110.462 76.5ZM135.077 76.5C135.077 75.12 136.18 74 137.538 74H142.462C143.823 74 144.923 75.12 144.923 76.5C144.923 77.88 143.823 79 142.462 79H137.538C136.18 79 135.077 77.88 135.077 76.5ZM159.692 76.5C159.692 75.12 160.793 74 162.154 74H167.077C168.438 74 169.538 75.12 169.538 76.5C169.538 77.88 168.438 79 167.077 79H162.154C160.793 79 159.692 77.88 159.692 76.5ZM103.077 84C104.433 84 105.538 85.1225 105.538 86.5C105.538 87.8775 104.433 89 103.077 89C101.721 89 100.615 87.8775 100.615 86.5C100.615 85.1225 101.721 84 103.077 84ZM95.6923 86.5C95.6923 90.635 99.0055 94 103.077 94C107.148 94 110.462 90.635 110.462 86.5C110.462 83.245 108.399 80.4975 105.538 79.46V66.5C105.538 65.12 104.436 64 103.077 64C101.718 64 100.615 65.12 100.615 66.5V79.46C97.7551 80.4975 95.6923 83.245 95.6923 86.5ZM176.923 84C178.282 84 179.385 85.1225 179.385 86.5C179.385 87.8775 178.282 89 176.923 89C175.564 89 174.462 87.8775 174.462 86.5C174.462 85.1225 175.564 84 176.923 84ZM169.538 86.5C169.538 90.635 172.852 94 176.923 94C180.994 94 184.308 90.635 184.308 86.5C184.308 83.245 182.242 80.4975 179.385 79.46V66.5C179.385 65.12 178.284 64 176.923 64C175.562 64 174.462 65.12 174.462 66.5V79.46C171.604 80.4975 169.538 83.245 169.538 86.5ZM152.308 84C153.666 84 154.769 85.1225 154.769 86.5C154.769 87.8775 153.666 89 152.308 89C150.949 89 149.846 87.8775 149.846 86.5C149.846 85.1225 150.949 84 152.308 84ZM144.923 86.5C144.923 90.635 148.236 94 152.308 94C156.379 94 159.692 90.635 159.692 86.5C159.692 83.245 157.627 80.4975 154.769 79.46V66.5C154.769 65.12 153.669 64 152.308 64C150.946 64 149.846 65.12 149.846 66.5V79.46C146.988 80.4975 144.923 83.245 144.923 86.5ZM127.692 84C129.049 84 130.154 85.1225 130.154 86.5C130.154 87.8775 129.049 89 127.692 89C126.336 89 125.231 87.8775 125.231 86.5C125.231 85.1225 126.336 84 127.692 84ZM120.308 86.5C120.308 90.635 123.621 94 127.692 94C131.764 94 135.077 90.635 135.077 86.5C135.077 83.245 133.014 80.4975 130.154 79.46V66.5C130.154 65.12 129.051 64 127.692 64C126.334 64 125.231 65.12 125.231 66.5V79.46C122.37 80.4975 120.308 83.245 120.308 86.5ZM191.692 209H88.3077C85.5458 209 82.6806 206.713 81.4966 204H198.503C197.319 206.713 194.454 209 191.692 209ZM80.9231 199H199.077V194H80.9231V199ZM191.692 74H186.769C185.408 74 184.308 75.12 184.308 76.5C184.308 77.88 185.408 79 186.769 79H191.692C195.281 79 199.077 82.855 199.077 86.5V189H80.9231V86.5C80.9231 82.855 84.7188 79 88.3077 79H93.2308C94.5895 79 95.6923 77.88 95.6923 76.5C95.6923 75.12 94.5895 74 93.2308 74H88.3077C81.9815 74 76 80.075 76 86.5V201.5C76 207.925 81.9815 214 88.3077 214H191.692C198.018 214 204 207.925 204 201.5V86.5C204 80.075 198.018 74 191.692 74Z" fill="black"/>
</svg>
